{"asset":{"version":"2.0","generator":"THREE.GLTFExporter"},"scenes":[{"nodes":[0],"name":"AuxScene"}],"scene":0,"nodes":[{"mesh":0}],"bufferViews":[{"buffer":0,"byteOffset":0,"byteLength":183024,"target":34962,"byteStride":12},{"buffer":0,"byteOffset":183024,"byteLength":183024,"target":34962,"byteStride":12}],"buffers":[{"byteLength":366048,"uri":"data:application/octet-stream;base64,"}],"accessors":[{"bufferView":0,"componentType":5126,"count":15252,"max":[99.47000122070312,68.10000610351562,35.600006103515625],"min":[-99.7300033569336,-19.69999885559082,-363.3999938964844],"type":"VEC3"},{"bufferView":1,"componentType":5126,"count":15252,"max":[0.9081488251686096,1,0.6246935129165649],"min":[-0.9458946585655212,0.253376305103302,-0.40614041686058044],"type":"VEC3"}],"materials":[{"pbrMetallicRoughness":{"baseColorFactor":[0.5019607843137255,0.5019607843137255,0.5019607843137255,1],"metallicFactor":0,"roughnessFactor":1}}],"meshes":[{"primitives":[{"mode":4,"attributes":{"POSITION":0,"NORMAL":1},"material":0}]}]}